# AST/ASF file generated using VICON BodyLanguage
# -----------------------------------------------
:version 1.10
:name VICON
:units
  mass 1.0
  length 0.45
  angle deg
:documentation
   .ast/.asf automatically generated from VICON data using
   VICON BodyBuilder and BodyLanguage model FoxedUp or BRILLIANT.MOD
:root
   order TX TY TZ RX RY RZ
   axis XYZ
   position 0 0 0  
   orientation 0 0 0 
:bonedata
  begin
     id 1 
     name lhipjoint
     direction 0.722297 -0.617336 0.311742 
     length 2.6635 
     axis 0 0 0  XYZ
  end
  begin
     id 2 
     name lfemur
     direction 0.34202 -0.939693 0  
     length 7.39349  
     axis 0 0 20  XYZ
    dof rx ry rz
    limits (-160.0 20.0)
           (-70.0 70.0)
           (-60.0 70.0)
  end
  begin
     id 3 
     name ltibia
     direction 0.34202 -0.939693 0   
     length 7.36294   
     axis 0 0 20   XYZ
    dof rx
    limits (-10.0 170.0)
  end
  begin
     id 4 
     name lfoot
     direction 0.104879 -0.288152 0.951824   
     length 2.16981   
     axis -90 7.62852e-016 20   XYZ
    dof rx rz
    limits (-45.0 90.0)
           (-70.0 20.0)
  end
  begin
     id 5 
     name ltoes
     direction 1.53586e-011 -4.21895e-011 1   
     length 1.08218   
     axis -90 7.62852e-016 20   XYZ
    dof rx
    limits (-90.0 20.0)
  end
  begin
     id 6 
     name rhipjoint
     direction -0.75102 -0.589393 0.297631   
     length 2.78977  
     axis 0 0 0  XYZ 
  end
  begin
     id 7 
     name rfemur
     direction -0.34202 -0.939693 0   
     length 7.46076   
     axis 0 0 -20   XYZ
    dof rx ry rz
    limits (-160.0 20.0)
           (-70.0 70.0)
           (-70.0 60.0)
  end
  begin
     id 8 
     name rtibia
     direction -0.34202 -0.939693 0   
     length 7.31726   
     axis 0 0 -20   XYZ
    dof rx
    limits (-10.0 170.0)
 end
 begin
     id 9 
     name rfoot
     direction -0.107991 -0.296704 0.948844   
     length 2.09388  
     axis -90 -7.62852e-016 -20   XYZ
    dof rx rz
    limits (-45.0 90.0)
           (-20.0 70.0)
  end
  begin
     id 10 
     name rtoes
     direction -1.53559e-011 -4.21911e-011 1   
     length 1.04433   
     axis -90 -7.62852e-016 -20   XYZ
    dof rx
    limits (-90.0 20.0)
  end
  begin
     id 11 
     name lowerback
     direction 0.0165164 0.98272 0.184358   
     length 1.71896   
     axis 0 0 0   XYZ
    dof rx ry rz
    limits (-20.0 45.0)
           (-30.0 30.0)
           (-30.0 30.0)
  end
  begin
     id 12 
     name upperback
     direction -0.00887249 0.992297 0.123566   
     length 1.71504   
     axis 0 0 0   XYZ
    dof rx ry rz
    limits (-20.0 45.0)
           (-30.0 30.0)
           (-30.0 30.0)
  end
  begin
     id 13 
     name thorax
     direction -0.0157026 0.998908 0.0440032   
     length 1.77022   
     axis 0 0 0   XYZ
    dof rx ry rz
    limits (-20.0 45.0)
           (-30.0 30.0)
           (-30.0 30.0)
  end
  begin
     id 14 
     name lowerneck
     direction -0.0238856 0.998137 0.0561411   
     length 1.89341   
     axis 0 0 0   XYZ
    dof rx ry rz
    limits (-20.0 45.0)
           (-30.0 30.0)
           (-30.0 30.0)
  end
  begin
     id 15 
     name upperneck
     direction 0.0276574 0.952253 -0.304056   
     length 1.86999   
     axis 0 0 0   XYZ
    dof rx ry rz
    limits (-20.0 45.0)
           (-30.0 30.0)
           (-30.0 30.0)
  end
  begin
     id 16
     name head
     direction 0.00800083 0.994258 -0.106712  
     length 1.91492  
     axis 0 0 0   XYZ
    dof rx ry rz
    limits (-20.0 45.0)
           (-30.0 30.0)
           (-30.0 30.0)
  end
  begin
     id 17 
     name lclavicle
     direction 0.97203 0.225407 0.06595  
     length 3.34889  
     axis 0 0 0   XYZ
    dof ry rz
    limits (-20.0 10.0)
           (0.0 20.0)
  end
  begin
     id 18 
     name lhumerus
     direction 1 -4.48973e-011 2.20267e-027   
     length 4.85645   
     axis 180 -30 -90   XYZ
    dof rx ry rz
    limits (-60.0 90.0)
           (-90.0 90.0)
           (-90.0 90.0)
  end
  begin
     id 19
     name lradius
     direction 1 -4.4897e-011 4.60472e-027   
     length 2.79874   
     axis 180 -30 -90   XYZ
    dof rx
    limits (-10.0 170.0)
  end
  begin
     id 20
     name lwrist
     direction 1 -4.48952e-011 1.14928e-026   
     length 1.39937   
     axis -6.29373e-015 90 90   XYZ
    dof ry
    limits (-180.0 0.0)
 end
  begin
     id 21 
     name lhand
     direction 1 -4.48967e-011 2.29886e-026   
     length 0.573398   
     axis -1.46689e-014 90 90   XYZ
    dof rx rz
    limits (-90.0 90.0)
           (-45.0 45.0)
  end
  begin
     id 22 
     name lfingers
     direction 1 -4.48955e-011 4.59726e-026   
     length 0.462289   
     axis -2.93383e-014 90 90   XYZ
    dof rx
    limits (0.0 90.0)
  end
  begin
     id 23
     name lthumb
     direction 0.707107 -6.34866e-011 0.707107   
     length 0.663757   
     axis -90 45 5.69224e-014   XYZ
    dof rx rz
    limits (-45.0 45.0)
           (-45.0 45.0)
  end
  begin
     id 24 
     name rclavicle
     direction -0.981571 0.157346 0.108443   
     length 3.35257  
     axis 0 0 0   XYZ 
    dof ry rz
    limits (-10.0 20.0)
           (-20.0 0.0)
  end
  begin
     id 25 
     name rhumerus
     direction -1 -4.48967e-011 8.58308e-029  
     length 4.67018   
     axis 180 30 90   XYZ
    dof rx ry rz
    limits (-90.0 60.0)
           (-90.0 90.0)
           (-90.0 90.0)
  end
  begin
     id 26 
     name rradius
     direction -1 -4.48958e-011 4.52548e-027   
     length 2.65534   
     axis 180 30 90   XYZ
    dof rx
    limits (-10.0 170.0)
  end
  begin
     id 27 
     name rwrist
     direction -1 -4.48977e-011 1.14952e-026   
     length 1.32767   
     axis -6.29373e-015 -90 -90   XYZ
    dof ry
    limits (-180.0 0.0)
  end
  begin
     id 28
     name rhand
     direction -1 -4.48924e-011 2.29804e-026   
     length 0.594069   
     axis -1.46689e-014 -90 -90   XYZ
    dof rx rz
    limits (-90.0 90.0)
           (-45.0 45.0)
  end
  begin
     id 29
     name rfingers
     direction -1 -4.48998e-011 4.59888e-026   
     length 0.478954   
     axis -2.93383e-014 -90 -90   XYZ
    dof rx
    limits (0.0 90.0)
  end
  begin
     id 30
     name rthumb
     direction -0.707107 -6.34933e-011 0.707107   
     length 0.687685   
     axis -90 -45 -5.69224e-014   XYZ
    dof rx rz
    limits (-45.0 45.0)
           (-45.0 45.0)
  end
:hierarchy
  begin
    root lhipjoint rhipjoint lowerback
    lhipjoint lfemur
    lfemur ltibia
    ltibia lfoot
    lfoot ltoes
    rhipjoint rfemur
    rfemur rtibia
    rtibia rfoot
    rfoot rtoes
    lowerback upperback
    upperback thorax
    thorax lowerneck lclavicle rclavicle
    lowerneck upperneck
    upperneck head
    lclavicle lhumerus
    lhumerus lradius
    lradius lwrist
    lwrist lhand lthumb
    lhand lfingers
    rclavicle rhumerus
    rhumerus rradius
    rradius rwrist
    rwrist rhand rthumb
    rhand rfingers
  end

#!OML:ASF E:\pregnant2\Project 1\Capture day 1\Session 1\pregnant2.ASF
:FULLY-SPECIFIED
:DEGREES
1
root -4.32933 17.3887 20.0152 31.5979 0.138596 1.80851
lowerback -22.3024 -0.907032 -3.24189
upperback -16.6475 -0.648296 -0.15329
thorax -5.93869 -0.0373512 1.5481
lowerneck -11.7034 -5.70554 -8.43229
upperneck 30.5868 -7.86871 4.94349
head 12.6359 -3.89795 2.19624
rclavicle -2.60905e-016 1.51573e-015
rhumerus -45.8367 5.91059 -91.3619
rradius 28.0584
rwrist 18.3279
rhand -10.6952 -15.1201
rfingers 7.12502
rthumb 15.3141 -44.533
lclavicle -2.60905e-016 1.51573e-015
lhumerus -47.4219 -8.42068 97.7098
lradius 26.6036
lwrist -10.3778
lhand -7.79612 25.561
lfingers 7.12502
lthumb 18.105 54.7384
rfemur -45.5787 15.6552 5.73615
rtibia 30.3069
rfoot -16.9959 -26.0062
rtoes 0.131164
lfemur -39.7071 -7.68297 -15.9322
ltibia 23.0474
lfoot -12.1175 20.9115
ltoes -2.95298
2
root -4.32907 17.3883 20.0148 31.597 0.13525 1.81605
lowerback -22.2884 -0.907007 -3.24923
upperback -16.6459 -0.647823 -0.163976
thorax -5.94377 -0.0370602 1.54079
lowerneck -11.7341 -5.70671 -8.42096
upperneck 30.5966 -7.85292 4.88783
head 12.642 -3.89594 2.17454
rclavicle 1.68346e-015 -3.47873e-016
rhumerus -45.8091 5.95955 -91.4006
rradius 28.0556
rwrist 18.2427
rhand -10.6175 -15.3019
rfingers 7.12502
rthumb 15.3889 -44.7092
lclavicle 1.68346e-015 -3.47873e-016
lhumerus -47.3966 -8.42675 97.7043
lradius 26.5911
lwrist -10.3867
lhand -7.79803 25.5521
lfingers 7.12502
lthumb 18.1032 54.7296
rfemur -45.5859 15.6187 5.74639
rtibia 30.3217
rfoot -16.9774 -25.9795
rtoes 0.148673
lfemur -39.7078 -7.68755 -15.939
ltibia 23.0394
lfoot -12.1224 20.9118
ltoes -2.94142
3
root -4.32853 17.3885 20.0166 31.5864 0.132991 1.82614
lowerback -22.3003 -0.909143 -3.26359
upperback -16.6485 -0.64796 -0.172613
thorax -5.94122 -0.0363421 1.5394
lowerneck -11.7067 -5.70191 -8.41141
upperneck 30.595 -7.8344 4.83872
head 12.6312 -3.89335 2.15757
rclavicle -5.46658e-016 2.06239e-015
rhumerus -45.8171 5.91829 -91.3765
rradius 28.0619
rwrist 18.3044
rhand -10.5251 -15.3015
rfingers 7.12502
rthumb 15.4779 -44.7019
lclavicle -5.46658e-016 2.06239e-015
lhumerus -47.4239 -8.4411 97.7132
lradius 26.5876
lwrist -10.3753
lhand -7.81876 25.5459
lfingers 7.12502
lthumb 18.0832 54.7253
rfemur -45.5614 15.5845 5.76199
rtibia 30.3282
rfoot -16.9904 -25.9435
rtoes 0.151621
lfemur -39.6925 -7.68338 -15.9585
ltibia 23.0513
lfoot -12.1415 20.9013
ltoes -2.95803
4
root -4.32621 17.3878 20.0147 31.6345 0.13041 1.81696
lowerback -22.3275 -0.890663 -3.21998
upperback -16.6588 -0.630281 -0.187853
thorax -5.94086 -0.0321726 1.50117
lowerneck -11.6681 -5.71276 -8.42403
upperneck 30.5528 -7.84131 4.81861
head 12.6061 -3.9011 2.15157
rclavicle -6.01324e-015 3.65267e-015
rhumerus -45.8111 5.93356 -91.3748
rradius 28.0846
rwrist 18.3018
rhand -10.545 -15.2406
rfingers 7.12502
rthumb 15.4588 -44.6425
lclavicle -6.01324e-015 3.65267e-015
lhumerus -47.4048 -8.47604 97.733
lradius 26.5811
lwrist -10.3571
lhand -7.84665 25.5791
lfingers 7.12502
lthumb 18.0564 54.761
rfemur -45.6258 15.5238 5.77188
rtibia 30.3337
rfoot -16.9468 -25.8951
rtoes 0.0878092
lfemur -39.7592 -7.68567 -15.9468
ltibia 23.0561
lfoot -12.1212 20.9145
ltoes -2.95064
5
root -4.32589 17.3879 20.0155 31.6219 0.129903 1.81639
lowerback -22.3285 -0.887637 -3.22343
upperback -16.6525 -0.625653 -0.194174
thorax -5.93322 -0.0300308 1.497
lowerneck -11.7031 -5.70635 -8.41292
upperneck 30.5637 -7.82035 4.78283
head 12.614 -3.89421 2.13832
rclavicle 2.56556e-015 -1.86361e-015
rhumerus -45.797 5.91667 -91.3616
rradius 28.09
rwrist 18.3339
rhand -10.5075 -15.2284
rfingers 7.12502
rthumb 15.4949 -44.6274
lclavicle 2.56556e-015 -1.86361e-015
lhumerus -47.3955 -8.48388 97.7318
lradius 26.5755
lwrist -10.364
lhand -7.84094 25.5956
lfingers 7.12502
lthumb 18.0619 54.7769
rfemur -45.6072 15.5144 5.78446
rtibia 30.3353
rfoot -16.9465 -25.8818
rtoes 0.0839295
lfemur -39.7437 -7.68738 -15.9494
ltibia 23.0592
lfoot -12.1264 20.9161
ltoes -2.95431
6
root -4.3259 17.3882 20.0166 31.6026 0.131351 1.81452
lowerback -22.3276 -0.886154 -3.2313
upperback -16.6428 -0.622252 -0.198297
thorax -5.92235 -0.0280375 1.4975
lowerneck -11.7579 -5.69742 -8.39337
upperneck 30.5816 -7.79569 4.7447
head 12.6281 -3.88459 2.12283
rclavicle 4.11236e-015 -1.88845e-015
rhumerus -45.7805 5.8932 -91.3446
rradius 28.0945
rwrist 18.3752
rhand -10.4754 -15.2027
rfingers 7.12502
rthumb 15.5258 -44.5994
lclavicle 4.11236e-015 -1.88845e-015
lhumerus -47.3868 -8.48729 97.7258
lradius 26.5787
lwrist -10.3732
lhand -7.82294 25.619
lfingers 7.12502
lthumb 18.0792 54.7988
rfemur -45.5784 15.5159 5.79761
rtibia 30.3338
rfoot -16.9494 -25.8778
rtoes 0.0794584
lfemur -39.72 -7.68841 -15.9508
ltibia 23.0641
lfoot -12.1338 20.9157
ltoes -2.96048
7
root -4.326 17.3884 20.0177 31.5856 0.135326 1.81087
lowerback -22.3266 -0.88462 -3.23787
upperback -16.6332 -0.618966 -0.202029
thorax -5.91174 -0.0261773 1.49767
lowerneck -11.8176 -5.68788 -8.36867
upperneck 30.5972 -7.77108 4.70721
head 12.6421 -3.87421 2.10658
rclavicle -3.78312e-015 7.45443e-016
rhumerus -45.7622 5.87198 -91.3312
rradius 28.0968
rwrist 18.4058
rhand -10.4484 -15.1843
rfingers 7.12502
rthumb 15.5518 -44.579
lclavicle -3.78312e-015 7.45443e-016
lhumerus -47.3752 -8.48917 97.7164
lradius 26.5821
lwrist -10.3825
lhand -7.80464 25.6404
lfingers 7.12502
lthumb 18.0968 54.8185
rfemur -45.5525 15.5212 5.81015
rtibia 30.3314
rfoot -16.9521 -25.8797
rtoes 0.0749138
lfemur -39.6964 -7.68831 -15.9495
ltibia 23.0623
lfoot -12.1352 20.9133
ltoes -2.96851
8
root -4.32634 17.3887 20.0188 31.5673 0.141835 1.80814
lowerback -22.3242 -0.884313 -3.24823
upperback -16.623 -0.616664 -0.205961
thorax -5.90104 -0.0244713 1.4996
lowerneck -11.8753 -5.67675 -8.33954
upperneck 30.6064 -7.74603 4.67277
head 12.6529 -3.86278 2.09085
rclavicle 3.43525e-015 -1.88845e-015
rhumerus -45.7424 5.84506 -91.3189
rradius 28.0948
rwrist 18.4319
rhand -10.4229 -15.1799
rfingers 7.12502
rthumb 15.5764 -44.5727
lclavicle 3.43525e-015 -1.88845e-015
lhumerus -47.3658 -8.49298 97.7044
lradius 26.5913
lwrist -10.3899
lhand -7.78748 25.6536
lfingers 7.12502
lthumb 18.1133 54.8302
rfemur -45.5244 15.5329 5.81992
rtibia 30.3285
rfoot -16.9603 -25.8894
rtoes 0.0773784
lfemur -39.6721 -7.68611 -15.9494
ltibia 23.0632
lfoot -12.1381 20.9063
ltoes -2.97981
9
root -4.32612 17.3887 20.0189 31.5709 0.149663 1.80445
lowerback -22.3289 -0.880972 -3.24662
upperback -16.6213 -0.612273 -0.21237
thorax -5.89709 -0.0227601 1.49243
lowerneck -11.895 -5.67033 -8.31416
upperneck 30.5906 -7.72992 4.64155
head 12.6464 -3.8561 2.07644
rclavicle -4.96962e-015 5.01931e-015
rhumerus -45.7287 5.82876 -91.3137
rradius 28.0947
rwrist 18.4403
rhand -10.4073 -15.1914
rfingers 7.12502
rthumb 15.5914 -44.583
lclavicle -4.96962e-015 5.01931e-015
lhumerus -47.3567 -8.50421 97.6975
lradius 26.5979
lwrist -10.3869
lhand -7.78349 25.6617
lfingers 7.12502
lthumb 18.1172 54.8379
rfemur -45.5239 15.5235 5.82926
rtibia 30.3262
rfoot -16.9554 -25.8864
rtoes 0.0672635
lfemur -39.6791 -7.68311 -15.9461
ltibia 23.068
lfoot -12.1355 20.8985
ltoes -2.99027
10
root -4.32596 17.3887 20.019 31.576 0.1591 1.80209
lowerback -22.3334 -0.877696 -3.24558
upperback -16.6205 -0.607881 -0.219885
thorax -5.89418 -0.0210265 1.4844
lowerneck -11.9037 -5.66296 -8.29108
upperneck 30.5657 -7.71511 4.61917
head 12.6345 -3.84936 2.06588
rclavicle 1.00635e-015 -9.44227e-016
rhumerus -45.716 5.81351 -91.3136
rradius 28.0922
rwrist 18.4358
rhand -10.4129 -15.1975
rfingers 7.12502
rthumb 15.586 -44.5895
lclavicle 1.00635e-015 -9.44227e-016
lhumerus -47.3489 -8.52223 97.6922
lradius 26.6049
lwrist -10.3823
lhand -7.78833 25.6601
lfingers 7.12502
lthumb 18.1125 54.8368
rfemur -45.5255 15.5149 5.83607
rtibia 30.3246
rfoot -16.954 -25.8859
rtoes 0.0635533
lfemur -39.6891 -7.6781 -15.9449
ltibia 23.0749
lfoot -12.1327 20.8875
ltoes -3.00022
11
root -4.32586 17.3887 20.019 31.5826 0.169507 1.80096
lowerback -22.3373 -0.874935 -3.24589
upperback -16.6215 -0.603982 -0.227298
thorax -5.89369 -0.0193509 1.47715
lowerneck -11.8955 -5.65323 -8.27405
upperneck 30.5303 -7.69979 4.60816
head 12.6155 -3.84198 2.06118
rclavicle -3.60297e-015 -3.27995e-015
rhumerus -45.7072 5.79813 -91.3135
rradius 28.09
rwrist 18.4348
rhand -10.4229 -15.2025
rfingers 7.12502
rthumb 15.5764 -44.5952
lclavicle -3.60297e-015 -3.27995e-015
lhumerus -47.3437 -8.5471 97.6917
lradius 26.6111
lwrist -10.372
lhand -7.79721 25.6583
lfingers 7.12502
lthumb 18.104 54.8358
rfemur -45.5289 15.5048 5.84186
rtibia 30.3236
rfoot -16.953 -25.8855
rtoes 0.0631729
lfemur -39.7021 -7.67363 -15.9441
ltibia 23.0839
lfoot -12.1326 20.8751
ltoes -3.00556
12
root -4.32577 17.3886 20.0191 31.5857 0.177959 1.79985
lowerback -22.3385 -0.87219 -3.24762
upperback -16.6222 -0.599976 -0.233359
thorax -5.89425 -0.0174023 1.4722
lowerneck -11.8831 -5.64214 -8.25665
upperneck 30.4926 -7.68276 4.59695
head 12.5945 -3.8339 2.05672
rclavicle 4.09993e-016 -4.47266e-015
rhumerus -45.7023 5.78532 -91.314
rradius 28.0903
rwrist 18.4351
rhand -10.4433 -15.2022
rfingers 7.12502
rthumb 15.5567 -44.5965
lclavicle 4.09993e-016 -4.47266e-015
lhumerus -47.3381 -8.57112 97.692
lradius 26.6159
lwrist -10.3632
lhand -7.80022 25.6651
lfingers 7.12502
lthumb 18.1011 54.8428
rfemur -45.5288 15.4975 5.84741
rtibia 30.3224
rfoot -16.9517 -25.8853
rtoes 0.0656096
lfemur -39.7103 -7.6717 -15.9427
ltibia 23.0918
lfoot -12.1342 20.8669
ltoes -3.00732
13
root -4.32579 17.3886 20.0191 31.5902 0.187052 1.79689
lowerback -22.3411 -0.868872 -3.24831
upperback -16.6232 -0.595309 -0.238541
thorax -5.89441 -0.0151486 1.46772
lowerneck -11.8733 -5.62972 -8.23945
upperneck 30.4572 -7.6646 4.58889
head 12.5751 -3.82489 2.05363
rclavicle 1.52816e-015 4.12478e-015
rhumerus -45.6982 5.76918 -91.3114
rradius 28.0907
rwrist 18.446
rhand -10.4527 -15.2078
rfingers 7.12502
rthumb 15.5477 -44.6028
lclavicle 1.52816e-015 4.12478e-015
lhumerus -47.331 -8.59896 97.6941
lradius 26.6182
lwrist -10.3558
lhand -7.80426 25.6704
lfingers 7.12502
lthumb 18.0972 54.8485
rfemur -45.5303 15.4925 5.85375
rtibia 30.3207
rfoot -16.9501 -25.8876
rtoes 0.065809
lfemur -39.72 -7.67141 -15.9371
ltibia 23.0984
lfoot -12.1364 20.8615
ltoes -3.00324
14
root -4.32589 17.3886 20.0191 31.5949 0.196321 1.7932
lowerback -22.3439 -0.866205 -3.24967
upperback -16.6244 -0.591347 -0.241843
thorax -5.89471 -0.0130705 1.46553
lowerneck -11.8661 -5.61676 -8.21956
upperneck 30.4242 -7.64502 4.5769
head 12.5568 -3.81538 2.04874
rclavicle 7.52897e-015 -7.05686e-015
rhumerus -45.6946 5.75339 -91.3082
rradius 28.0876
rwrist 18.4577
rhand -10.4755 -15.2026
rfingers 7.12502
rthumb 15.5257 -44.5993
lclavicle 7.52897e-015 -7.05686e-015
lhumerus -47.3244 -8.62349 97.695
lradius 26.6228
lwrist -10.352
lhand -7.80681 25.674
lfingers 7.12502
lthumb 18.0947 54.8523
rfemur -45.5309 15.4851 5.86282
rtibia 30.3177
rfoot -16.9468 -25.8872
rtoes 0.0636658
lfemur -39.7295 -7.67366 -15.9287
ltibia 23.1041
lfoot -12.1418 20.858
ltoes -2.99219
15
root -4.32606 17.3886 20.019 31.5985 0.205521 1.78859
lowerback -22.3439 -0.864014 -3.25113
upperback -16.6268 -0.588113 -0.243512
thorax -5.89768 -0.0112063 1.46507
lowerneck -11.8643 -5.60107 -8.19782
upperneck 30.3978 -7.62189 4.56517
head 12.542 -3.80394 2.04408
rclavicle 2.21148e-015 -1.2921e-015
rhumerus -45.6919 5.73562 -91.3029
rradius 28.0809
rwrist 18.4773
rhand -10.4934 -15.1937
rfingers 7.12502
rthumb 15.5085 -44.5917
lclavicle 2.21148e-015 -1.2921e-015
lhumerus -47.3181 -8.64624 97.6958
lradius 26.6243
lwrist -10.349
lhand -7.81417 25.6746
lfingers 7.12502
lthumb 18.0876 54.8536
rfemur -45.5301 15.4783 5.87345
rtibia 30.3134
rfoot -16.9421 -25.8874
rtoes 0.0621546
lfemur -39.7377 -7.67642 -15.919
ltibia 23.11
lfoot -12.1477 20.8559
ltoes -2.98172
